<svg width="372" height="100" viewBox="0 0 372 100" fill="none" xmlns="http://www.w3.org/2000/svg">
<g clip-path="url(#clip0_1708_6731)">
<path d="M96.6445 50.5909C96.0292 49.3527 94.3916 48.3418 93.0057 48.3418H90.1889C88.8055 48.3418 87.1872 49.3642 86.5886 50.6114L64.2574 97.2648C63.637 98.4991 64.3113 99.3828 65.6972 99.3828H70.8581C72.8952 99.3828 73.829 98.4568 74.38 97.3213C74.9336 96.1859 76.1641 93.7185 76.3991 93.215C76.7177 92.5342 77.699 92.1168 79.0823 92.118L103.11 92.1309C104.495 92.1335 105.385 92.3968 105.795 93.215C106.062 93.748 107.29 95.9675 107.894 97.1787C108.502 98.39 109.525 99.3828 111.509 99.3828H118.998C120.382 99.3828 120.988 98.3322 120.49 97.356C119.989 96.3772 96.6445 50.5909 96.6445 50.5909ZM82.5362 84.9124C81.1529 84.9124 80.5016 83.8822 81.0835 82.6299L89.8832 63.7782C90.4689 62.522 91.4155 62.531 91.9871 63.7859L100.554 82.6376C101.126 83.8951 100.462 84.9252 99.0798 84.9252L82.5362 84.9124ZM269.2 50.9518V97.2353C269.2 98.5094 270.331 99.3828 271.717 99.3828H277.82C279.203 99.3828 280.336 98.4991 280.336 97.1145V50.858C280.336 49.4721 279.442 48.3431 278.059 48.3431H271.717C270.331 48.3418 269.2 49.1934 269.2 50.9518ZM166.938 79.9416C166.143 78.8087 166.58 77.5577 167.904 77.162C167.904 77.162 173.176 75.5835 175.7 73.3203C178.226 71.0507 179.495 67.7741 179.495 63.5033C179.495 60.711 179.007 58.363 178.034 56.453C177.075 54.5598 175.633 52.9533 173.855 51.7957C172.041 50.596 169.87 49.7162 167.343 49.1651C164.811 48.6167 161.396 48.4561 161.396 48.4561C159.72 48.3866 158.044 48.3485 156.367 48.3418H131.025C130.359 48.3435 129.72 48.609 129.249 49.0803C128.777 49.5516 128.512 50.1903 128.51 50.8567V97.1145C128.51 98.5004 129.642 99.3828 131.025 99.3828H137.022C138.407 99.3828 139.538 98.4991 139.538 97.1145C139.538 97.1145 139.542 78.7162 139.554 78.7162C139.564 78.7162 139.57 78.7059 139.57 78.6931C139.57 78.6777 150.939 78.6648 150.939 78.6648C152.321 78.6648 154.106 79.5896 154.907 80.7225L166.708 97.3393C167.805 98.8113 168.848 99.3828 170.231 99.3828H178.07C179.455 99.3828 179.672 98.0779 179.193 97.3997L166.938 79.9416ZM162.166 70.5472C160.613 70.9043 158.865 70.9762 158.865 70.9762C157.483 71.0366 155.221 71.0854 153.837 71.0854H142.089C141.422 71.0833 140.784 70.8176 140.312 70.3461C139.841 69.8747 139.575 69.2359 139.573 68.5692V59.1966C139.573 57.812 140.705 56.6804 142.089 56.6804H153.837C155.221 56.6804 157.483 56.7305 158.865 56.7883C158.865 56.7883 160.613 56.8576 162.166 57.216C163.719 57.5744 164.951 58.074 165.853 58.7201C166.758 59.37 167.404 60.1317 167.795 61.0077C168.18 61.8836 168.377 62.838 168.377 63.8797C168.386 64.8667 168.187 65.8448 167.795 66.7504C167.404 67.6264 166.758 68.388 165.853 69.038C164.951 69.6879 163.719 70.194 162.166 70.5472ZM344.124 48.3418C342.74 48.3418 341.622 49.2538 341.622 50.587L341.637 80.1753C341.637 81.5625 340.853 81.8772 339.893 80.8805L310.266 50.1503C309.718 49.5715 309.056 49.1121 308.322 48.8009C307.588 48.4897 306.797 48.3334 306 48.3418H300.428C298.676 48.3418 297.91 49.2769 297.91 50.2235V97.5384C297.91 98.4824 298.809 99.3828 300.195 99.3828H305.775C307.156 99.3828 308.125 98.6302 308.125 97.356L308.153 66.1852C308.153 64.8019 308.935 64.4859 309.893 65.4852L340.785 97.6C341.767 98.5826 342.959 99.3828 345.079 99.3828H349.272C350.658 99.3828 351.789 98.2512 351.789 96.8666V50.858C351.787 50.1911 351.522 49.552 351.05 49.0807C350.578 48.6093 349.939 48.3441 349.272 48.3431L344.124 48.3418ZM223.331 77.1929C222.659 78.4015 221.554 78.3977 220.891 77.1865L206.409 50.5909C205.793 49.3565 204.531 48.3418 202.771 48.3418H194.917C194.25 48.3428 193.61 48.608 193.138 49.0793C192.666 49.5506 192.4 50.1897 192.398 50.8567V97.0554C192.398 98.4375 193.307 99.3828 194.917 99.3828H199.799C201.185 99.3828 202.183 98.5094 202.183 97.1749C202.183 96.5352 202.203 63.574 202.256 63.574C202.31 63.574 220.332 97.1659 220.332 97.1659C220.985 98.3848 222.586 98.39 223.252 97.1762C223.252 97.1762 241.421 63.6703 241.475 63.6703C241.532 63.6703 241.511 96.2128 241.511 97.1749C241.511 98.5107 242.579 99.3828 243.964 99.3828H249.588C250.974 99.3828 252.103 98.6931 252.103 96.8666V50.858C252.102 50.1913 251.836 49.5522 251.365 49.0808C250.893 48.6094 250.254 48.3441 249.588 48.3431H242.058C240.137 48.3431 238.981 49.3231 238.294 50.5266L223.331 77.1929ZM0.0546875 73.8174C0.0546875 98.7419 25.5482 100.006 30.6603 100.006C47.5776 100.006 54.7268 95.4345 55.0235 95.2367C56.0819 94.6381 57.3702 93.4307 57.3702 91.1688V73.9651C57.3688 73.2025 57.0652 72.4717 56.5259 71.9326C55.9866 71.3935 55.2556 71.0902 54.493 71.0892H33.2394C31.6506 71.0892 30.6076 72.3801 30.6076 73.9651V75.7466C30.6076 77.3342 31.6506 78.6289 33.2394 78.6289H45.5328C46.7196 78.6289 47.6842 79.5922 47.6842 80.779L47.6727 88.7978C45.2438 89.7894 34.1822 93.021 25.2939 90.9017C12.4007 87.8177 11.3963 77.1813 11.3963 73.9946C11.3963 71.3204 12.1978 57.9237 28.0323 56.5686C40.8497 55.4717 49.2898 60.6467 49.3733 60.6968C50.8799 61.4778 52.4392 60.9216 53.2793 59.3263C53.2831 59.3135 54.8784 56.0857 54.8784 56.0857C55.5424 54.7576 55.3189 53.3807 53.698 52.2812C53.5901 52.2195 44.6054 47.3477 30.6629 47.3477C0.912692 47.3489 0.0546875 71.1085 0.0546875 73.8174ZM359.784 93.0287H357.594V92.2388H362.924V93.0287H360.724V99.4368H359.784V93.0287ZM370.326 96.2758C370.272 95.2714 370.208 94.0537 370.208 93.1674H370.186C369.908 94.0867 369.606 94.9986 369.279 95.902L368.008 99.3931H367.303L366.127 95.9662C365.813 95.0456 365.539 94.1118 365.305 93.1674H365.284C365.262 94.064 365.208 95.2611 365.145 96.3503L364.953 99.4355H364.067L364.569 92.2375H365.755L366.984 95.7196C367.282 96.6059 367.517 97.3971 367.71 98.1434H367.732C367.923 97.4176 368.18 96.6277 368.501 95.7196L369.783 92.2375H370.968L371.418 99.4355H370.498L370.326 96.2758Z" fill="black"/>
<path fill-rule="evenodd" clip-rule="evenodd" d="M341.304 35.5795L307.919 35.5782C306.695 35.5782 305.644 34.9694 305.033 33.9097C304.421 32.85 304.421 31.6375 305.034 30.5779L321.728 1.68058C322.014 1.16892 322.433 0.744132 322.941 0.451113C323.449 0.158094 324.026 0.00773863 324.613 0.0159437C325.835 0.0159437 326.886 0.622199 327.497 1.68058L344.189 30.5792C344.49 31.0828 344.649 31.6587 344.649 32.2455C344.649 32.8324 344.491 33.4084 344.19 33.9123C343.904 34.4243 343.484 34.8495 342.976 35.143C342.468 35.4364 341.89 35.5872 341.304 35.5795Z" fill="#007CC2"/>
</g>
<defs>
<clipPath id="clip0_1708_6731">
<rect width="371.471" height="100" fill="white"/>
</clipPath>
</defs>
</svg>
